<svg width="80" height="62" viewBox="0 0 80 62" fill="none" xmlns="http://www.w3.org/2000/svg">
<path d="M67.7676 5.18644C62.5891 2.76353 57.0519 1.00266 51.263 0C50.552 1.28537 49.7214 3.01422 49.1488 4.38951C42.995 3.46406 36.8978 3.46406 30.8572 4.38951C30.2846 3.01422 29.4352 1.28537 28.7179 0C22.9227 1.00266 17.3792 2.77 12.2006 5.19927C1.75548 20.9833 -1.07604 36.3753 0.339722 51.5487C7.26751 56.7222 13.9814 59.8649 20.5819 61.9214C22.2116 59.6785 23.6651 57.2942 24.9173 54.7813C22.5325 53.8752 20.2484 52.7569 18.0902 51.4587C18.6628 51.0346 19.2229 50.5911 19.7639 50.1348C32.9273 56.2916 47.2297 56.2916 60.2358 50.1348C60.7832 50.5911 61.3432 51.0346 61.9095 51.4587C59.7449 52.7633 57.4546 53.8815 55.0699 54.7878C56.322 57.2942 57.7692 59.6849 59.4052 61.9278C66.0121 59.8713 72.7322 56.7286 79.66 51.5487C81.3212 33.9588 76.8222 18.7082 67.7676 5.18644ZM26.7106 42.2172C22.7591 42.2172 19.5185 38.5282 19.5185 34.0359C19.5185 29.5436 22.6899 25.8483 26.7106 25.8483C30.7314 25.8483 33.9719 29.5372 33.9027 34.0359C33.9089 38.5282 30.7314 42.2172 26.7106 42.2172ZM53.2891 42.2172C49.3376 42.2172 46.0971 38.5282 46.0971 34.0359C46.0971 29.5436 49.2683 25.8483 53.2891 25.8483C57.3098 25.8483 60.5504 29.5372 60.4812 34.0359C60.4812 38.5282 57.3098 42.2172 53.2891 42.2172Z" fill="#5865F2"/>
</svg>
