<svg width="88" height="88" viewBox="0 0 88 88" fill="none" xmlns="http://www.w3.org/2000/svg">
<g filter="url(#filter0_d_219_144)">
<path fill-rule="evenodd" clip-rule="evenodd" d="M22.0664 0H65.9336C70.7209 0.0138059 75.3082 1.93053 78.6933 5.33144C82.0784 8.73235 83.9863 13.341 84 18.1506V61.8559C83.9845 66.6644 82.076 71.2714 78.691 74.6709C75.3061 78.0704 70.7197 79.9862 65.9336 80H22.0664C17.2802 79.9862 12.6939 78.0704 9.309 74.6709C5.92405 71.2714 4.01546 66.6644 4 61.8559V18.1506C4.01374 13.341 5.92157 8.73235 9.30671 5.33144C12.6918 1.93053 17.2791 0.0138059 22.0664 0Z" fill="#0A66C2"/>
<path fill-rule="evenodd" clip-rule="evenodd" d="M36.0247 31.0099H46.1354V36.2425H46.2787C47.6914 33.7047 51.1289 31.0099 56.2656 31.0099C66.9362 31.0099 68.9089 37.6814 68.9089 46.361V64.7144H58.3685V48.4017C58.3685 44.667 58.2904 39.8595 52.8867 39.8595C47.4831 39.8595 46.5586 43.9213 46.5586 48.1336V64.7471H36.0247V31.0099ZM30.0417 20.7932C30.0417 21.8825 29.7202 22.9472 29.1178 23.8529C28.5155 24.7586 27.6593 25.4645 26.6577 25.8813C25.656 26.2981 24.5538 26.4072 23.4905 26.1947C22.4271 25.9822 21.4503 25.4577 20.6837 24.6875C19.9171 23.9173 19.395 22.9359 19.1835 21.8676C18.9719 20.7993 19.0805 19.692 19.4954 18.6856C19.9103 17.6793 20.6129 16.8192 21.5144 16.214C22.4159 15.6089 23.4757 15.2859 24.5599 15.2859C26.0132 15.2876 27.4065 15.8684 28.4342 16.9009C29.4619 17.9333 30.0399 19.3331 30.0417 20.7932ZM19.0911 31.0099H30.0417V64.7144H19.0911V31.0099Z" fill="white"/>
</g>
<defs>
<filter id="filter0_d_219_144" x="0" y="0" width="88" height="88" filterUnits="userSpaceOnUse" color-interpolation-filters="sRGB">
<feFlood flood-opacity="0" result="BackgroundImageFix"/>
<feColorMatrix in="SourceAlpha" type="matrix" values="0 0 0 0 0 0 0 0 0 0 0 0 0 0 0 0 0 0 127 0" result="hardAlpha"/>
<feOffset dy="4"/>
<feGaussianBlur stdDeviation="2"/>
<feComposite in2="hardAlpha" operator="out"/>
<feColorMatrix type="matrix" values="0 0 0 0 0 0 0 0 0 0 0 0 0 0 0 0 0 0 0.25 0"/>
<feBlend mode="normal" in2="BackgroundImageFix" result="effect1_dropShadow_219_144"/>
<feBlend mode="normal" in="SourceGraphic" in2="effect1_dropShadow_219_144" result="shape"/>
</filter>
</defs>
</svg>
