<svg width="88" height="88" viewBox="0 0 88 88" fill="none" xmlns="http://www.w3.org/2000/svg">
<g clip-path="url(#clip0_219_190)" filter="url(#filter0_d_219_190)">
<path fill-rule="evenodd" clip-rule="evenodd" d="M22.2786 0.388672H65.7216C70.4626 0.402344 75.0055 2.30044 78.3579 5.66831C81.7103 9.03618 83.5997 13.6001 83.6133 18.3629V61.6436C83.598 66.4054 81.7078 70.9676 78.3556 74.3341C75.0034 77.7005 70.4615 79.5977 65.7216 79.6114H22.2786C17.5388 79.5977 12.9968 77.7005 9.64462 74.3341C6.2924 70.9676 4.40227 66.4054 4.38696 61.6436V18.3629C4.40057 13.6001 6.28995 9.03618 9.64235 5.66831C12.9947 2.30044 17.5377 0.402344 22.2786 0.388672Z" fill="white"/>
<path d="M22.2785 0H65.7215C70.5645 0.0153727 75.2049 1.95496 78.6294 5.39535C82.054 8.83573 83.9847 13.4975 84 18.3629V61.6436C83.9864 66.5089 82.056 71.171 78.6309 74.6107C75.2058 78.0504 70.5645 79.988 65.7215 80H22.2785C17.4355 79.988 12.7942 78.0504 9.36909 74.6107C5.94396 71.171 4.01362 66.5089 4 61.6436V18.3629C4.0153 13.4975 5.94598 8.83573 9.37056 5.39535C12.7951 1.95496 17.4355 0.0153727 22.2785 0ZM65.7215 0.777265H22.2785C17.6391 0.787531 13.1926 2.64359 9.91203 5.93931C6.63145 9.23503 4.78391 13.702 4.77369 18.3629V61.6436C4.78562 66.3033 6.6339 70.7687 9.9143 74.063C13.1947 77.3573 17.6402 79.2125 22.2785 79.2227H65.7215C70.3598 79.2125 74.8053 77.3573 78.0857 74.063C81.3661 70.7687 83.2144 66.3033 83.2263 61.6436V18.3629C83.2161 13.702 81.3685 9.23503 78.088 5.93931C74.8074 2.64359 70.3609 0.787531 65.7215 0.777265Z" fill="#999999"/>
<path fill-rule="evenodd" clip-rule="evenodd" d="M71.6403 28.6681C71.6403 28.6681 71.0922 24.7818 69.3966 23.0394C67.2496 20.7854 64.8382 20.7724 63.7421 20.6364C55.8505 20.0793 43.9743 20.0793 43.9743 20.0793C43.9743 20.0793 32.1303 20.0793 24.2322 20.6558C23.1296 20.7918 20.7247 20.8048 18.5777 23.0589C16.8821 24.7753 16.3405 28.6876 16.3405 28.6876C15.9911 31.7348 15.8039 34.7985 15.7795 37.8658V42.1666C15.8042 45.2339 15.9914 48.2976 16.3405 51.3448C16.3405 51.3448 16.895 55.2312 18.5777 56.9735C20.7247 59.2276 23.5487 59.1563 24.8124 59.396C29.3256 59.83 44 59.9595 44 59.9595C44 59.9595 55.8634 59.9595 63.755 59.3701C64.8576 59.2406 67.2624 59.2276 69.4095 56.9735C71.1051 55.2571 71.6596 51.3448 71.6596 51.3448C72.0091 48.2955 72.1964 45.2296 72.2205 42.1601V37.8463C72.1877 34.7769 71.9962 31.7112 71.6467 28.6616L71.6403 28.6681Z" fill="#FF0000"/>
<path fill-rule="evenodd" clip-rule="evenodd" d="M38.1521 47.3548V31.4209L53.3939 39.4203L38.1521 47.3548Z" fill="white"/>
</g>
<defs>
<filter id="filter0_d_219_190" x="0" y="0" width="88" height="88" filterUnits="userSpaceOnUse" color-interpolation-filters="sRGB">
<feFlood flood-opacity="0" result="BackgroundImageFix"/>
<feColorMatrix in="SourceAlpha" type="matrix" values="0 0 0 0 0 0 0 0 0 0 0 0 0 0 0 0 0 0 127 0" result="hardAlpha"/>
<feOffset dy="4"/>
<feGaussianBlur stdDeviation="2"/>
<feComposite in2="hardAlpha" operator="out"/>
<feColorMatrix type="matrix" values="0 0 0 0 0 0 0 0 0 0 0 0 0 0 0 0 0 0 0.25 0"/>
<feBlend mode="normal" in2="BackgroundImageFix" result="effect1_dropShadow_219_190"/>
<feBlend mode="normal" in="SourceGraphic" in2="effect1_dropShadow_219_190" result="shape"/>
</filter>
<clipPath id="clip0_219_190">
<rect width="80" height="80" fill="white" transform="translate(4)"/>
</clipPath>
</defs>
</svg>
